<?xml version="1.0" encoding="utf-8"?>
<!-- Generator: Adobe Illustrator 15.0.0, SVG Export Plug-In . SVG Version: 6.00 Build 0)  -->
<!DOCTYPE svg PUBLIC "-//W3C//DTD SVG 1.1//EN" "http://www.w3.org/Graphics/SVG/1.1/DTD/svg11.dtd">
<svg version="1.1" id="Ebene_1" xmlns="http://www.w3.org/2000/svg" xmlns:xlink="http://www.w3.org/1999/xlink" x="0px" y="0px"
	 width="40px" height="32px" viewBox="0 0 40 32" enable-background="new 0 0 40 32" xml:space="preserve">
<g>
	<ellipse fill="#9B71FF" cx="23.976" cy="16" rx="16.024" ry="16"/>
	<polygon fill="#FFFFFF" points="13.88,9.632 16.414,12.565 13.321,15.446 	"/>
	<polygon fill="#FFFFFF" points="16.73,12.989 18.596,15.13 18.297,26.882 13.542,15.958 	"/>
	<polygon fill="#FFFFFF" points="24.723,12.487 27.877,27.026 18.817,27.032 19.06,17.54 	"/>
	<polygon fill="#FFFFFF" points="28.529,16.425 28.114,27.163 25.015,11.099 	"/>
	<polygon fill="#FFFFFF" points="32.521,11.569 29.084,27.038 29.053,16.544 	"/>
	<polygon fill="#FFFFFF" points="33.37,6.013 32.42,10.464 29.131,8.485 	"/>
	<polygon fill="#FFFFFF" points="24.035,6.013 28.395,8.478 25.244,10.372 	"/>
	<polygon fill="#FFFFFF" points="32.258,10.979 28.831,15.905 25.524,10.815 28.761,8.878 	"/>
	<line fill="none" stroke="#9B71FF" stroke-width="0.5" stroke-miterlimit="10" x1="17.004" y1="12.288" x2="13.029" y2="16.038"/>
	<line fill="none" stroke="#9B71FF" stroke-width="0.5" stroke-miterlimit="10" x1="18.506" y1="27.569" x2="18.913" y2="14.507"/>
	<line fill="none" stroke="#9B71FF" stroke-width="0.5" stroke-miterlimit="10" x1="24.549" y1="10.694" x2="28.086" y2="28.382"/>
	<line fill="none" stroke="#9B71FF" stroke-width="0.5" stroke-miterlimit="10" x1="28.798" y1="16.282" x2="28.553" y2="27.845"/>
	<line fill="none" stroke="#9B71FF" stroke-width="0.5" stroke-miterlimit="10" x1="25.141" y1="10.751" x2="28.834" y2="16.376"/>
	<path fill="none" stroke="#9B71FF" stroke-width="0.5" stroke-miterlimit="10" d="M28.896,16.376"/>
	<path fill="none" stroke="#9B71FF" stroke-width="0.5" stroke-miterlimit="10" d="M33.121,9.97"/>
	<line fill="none" stroke="#9B71FF" stroke-width="0.5" stroke-miterlimit="10" x1="32.588" y1="10.751" x2="28.895" y2="16.376"/>
	<line fill="none" stroke="#9B71FF" stroke-width="0.5" stroke-miterlimit="10" x1="28.771" y1="8.438" x2="24.953" y2="10.876"/>
	<line fill="none" stroke="#9B71FF" stroke-width="0.5" stroke-miterlimit="10" x1="28.709" y1="8.438" x2="32.527" y2="10.876"/>
</g>
</svg>
